<svg xmlns="http://www.w3.org/2000/svg" width="38" height="38" viewBox="0 0 38 38">
  <g id="Group_349" data-name="Group 349" transform="translate(0.465 0.488)">
    <circle id="Ellipse_246" data-name="Ellipse 246" cx="19" cy="19" r="19" transform="translate(-0.465 -0.488)" fill="#ffc400"/>
    <path id="Icon_awesome-dollar-sign" data-name="Icon awesome-dollar-sign" d="M9.422,10.511,4.558,9.088a1.328,1.328,0,0,1,.374-2.6H7.918a2.749,2.749,0,0,1,1.54.473.7.7,0,0,0,.878-.09L11.9,5.336a.73.73,0,0,0-.081-1.1,6.368,6.368,0,0,0-3.9-1.351V.721A.723.723,0,0,0,7.206,0H5.765a.723.723,0,0,0-.721.721V2.882H4.932A4.934,4.934,0,0,0,.023,8.268,5.155,5.155,0,0,0,3.8,12.618l4.616,1.351a1.328,1.328,0,0,1-.374,2.6H5.054a2.749,2.749,0,0,1-1.54-.473.7.7,0,0,0-.878.09L1.068,17.721a.73.73,0,0,0,.081,1.1,6.368,6.368,0,0,0,3.9,1.351v2.162a.723.723,0,0,0,.721.721H7.206a.723.723,0,0,0,.721-.721V20.166a5.087,5.087,0,0,0,4.76-3.274,4.945,4.945,0,0,0-3.265-6.381Z" transform="translate(12.728 7.023)" fill="#fff"/>
  </g>
</svg>
