<svg xmlns="http://www.w3.org/2000/svg" width="22" height="22" viewBox="0 0 22 22">
  <g id="Group_397" data-name="Group 397" transform="translate(-1139 -612)">
    <circle id="Ellipse_257" data-name="Ellipse 257" cx="11" cy="11" r="11" transform="translate(1139 612)" fill="#33cc6e"/>
    <path id="Icon_material-attach-money" data-name="Icon material-attach-money" d="M14.325,11.484c-2.007-.522-2.652-1.061-2.652-1.9,0-.964.893-1.636,2.387-1.636,1.574,0,2.157.751,2.21,1.857h1.954a3.524,3.524,0,0,0-2.838-3.368V4.5H12.733V6.41C11.018,6.781,9.639,7.895,9.639,9.6c0,2.042,1.689,3.059,4.155,3.651,2.21.53,2.652,1.308,2.652,2.131,0,.61-.433,1.583-2.387,1.583-1.821,0-2.537-.813-2.635-1.857H9.48A3.7,3.7,0,0,0,12.733,18.5v1.918h2.652v-1.9c1.724-.327,3.094-1.326,3.094-3.138C18.48,12.863,16.332,12.006,14.325,11.484Z" transform="translate(1136.52 610.5)" fill="#fff"/>
  </g>
</svg>
