<svg xmlns="http://www.w3.org/2000/svg" width="35.998" height="35.998" viewBox="0 0 35.998 35.998">
  <path id="Icon_awesome-bitcoin" data-name="Icon awesome-bitcoin" d="M36.56,18.561a18,18,0,1,1-18-18A18,18,0,0,1,36.56,18.561ZM26.28,16c.358-2.395-1.465-3.682-3.959-4.541l.809-3.244-1.975-.492-.788,3.159c-.519-.129-1.052-.251-1.582-.372l.793-3.18L17.6,6.834l-.809,3.243c-.43-.1-.852-.195-1.261-.3l0-.01-2.724-.68L12.286,11.2s1.465.336,1.434.357a1.051,1.051,0,0,1,.92,1.149l-.921,3.7a1.638,1.638,0,0,1,.205.066l-.209-.052-1.292,5.177a.719.719,0,0,1-.905.469c.02.029-1.436-.358-1.436-.358L9.1,23.964l2.57.641c.478.12.947.245,1.408.363l-.817,3.281,1.973.492.809-3.247q.785.213,1.574.408l-.807,3.231,1.975.492.817-3.275c3.368.637,5.9.38,6.966-2.665.859-2.452-.043-3.867-1.815-4.789A3.149,3.149,0,0,0,26.28,16Zm-4.513,6.327c-.61,2.452-4.74,1.127-6.079.794l1.085-4.347c1.339.334,5.632,1,4.994,3.553Zm.611-6.362c-.557,2.231-3.994,1.1-5.109.82l.983-3.943C19.367,13.116,22.958,13.635,22.378,15.962Z" transform="translate(-0.563 -0.563)" fill="#ffc400"/>
</svg>
