<svg xmlns="http://www.w3.org/2000/svg" width="146.726" height="41.515" viewBox="0 0 146.726 41.515">
  <g id="Group_258" data-name="Group 258" transform="translate(-75 -17)">
    <g id="Group_234" data-name="Group 234" transform="translate(-30)">
      <g id="Group_156" data-name="Group 156" transform="translate(-276.52 311.938)">
        <path id="Path_628" data-name="Path 628" d="M936.162-228.5c-.227,0-.338.152-.473.26a5.52,5.52,0,0,1-8.873-2.5,9.108,9.108,0,0,1-.039-6.233,5.827,5.827,0,0,1,8.379-3.292c.063.033.122.072.185.1.617.307.753.249.77-.416.024-.954,0-1.908,0-2.863a7.843,7.843,0,0,1,.013-.848,1.623,1.623,0,0,1,1.76-1.592,1.6,1.6,0,0,1,1.692,1.65c.033.6.008,1.2.008,1.8q0,6.68.005,13.36a5.812,5.812,0,0,1-.033.846,1.056,1.056,0,0,1-.495.777,2.04,2.04,0,0,1-2.759-.813A2.43,2.43,0,0,0,936.162-228.5Zm.094-5.385a4.526,4.526,0,0,0-.245-1.758,3.363,3.363,0,0,0-2.8-2.409,3.215,3.215,0,0,0-3.084,2,5.11,5.11,0,0,0,.1,4.493,2.879,2.879,0,0,0,2.8,1.739,2.96,2.96,0,0,0,2.76-1.8A4.558,4.558,0,0,0,936.256-233.886Z" transform="translate(-424.343 -38.214)" fill="#fff"/>
        <path id="Path_629" data-name="Path 629" d="M526.972-227.2a9.625,9.625,0,0,1-9.637-9.6,9.688,9.688,0,0,1,7.487-9.538,10,10,0,0,1,6.409.683,1.694,1.694,0,0,1,.93,2.444,1.672,1.672,0,0,1-2.044.89c-.269-.08-.521-.218-.786-.316a6.006,6.006,0,0,0-8.223,5.416,6.039,6.039,0,0,0,8.173,6.122,5.624,5.624,0,0,1,.7-.248,1.693,1.693,0,0,1,2.181.989,1.716,1.716,0,0,1-.976,2.273,9.683,9.683,0,0,1-3.471.88C527.467-227.187,527.219-227.2,526.972-227.2Z" transform="translate(-105.8 -37.675)" fill="#fff"/>
        <path id="Path_630" data-name="Path 630" d="M587.558-217.573a7.086,7.086,0,0,1,7.179-7.186,7.173,7.173,0,0,1,7.157,7.151,7.08,7.08,0,0,1-7.177,7.116A6.987,6.987,0,0,1,587.558-217.573Zm7.1,3.838a3.735,3.735,0,0,0,3.749-3.786,3.79,3.79,0,0,0-3.656-4.011,3.856,3.856,0,0,0-3.772,3.921A3.817,3.817,0,0,0,594.655-213.735Z" transform="translate(-160.499 -54.67)" fill="#fff"/>
        <path id="Path_631" data-name="Path 631" d="M802.16-216c-1.165,0-2.331-.026-3.495.01-.709.022-.874.287-.643.956a3.441,3.441,0,0,0,2.694,2.291,4.656,4.656,0,0,0,2.807-.213,10.447,10.447,0,0,1,1.088-.411,1.416,1.416,0,0,1,1.72.681,1.365,1.365,0,0,1-.551,1.843,7.918,7.918,0,0,1-4.444,1.156,6.926,6.926,0,0,1-6-3.178,7.42,7.42,0,0,1,1.268-9.3,6.814,6.814,0,0,1,7.818-.639,6.138,6.138,0,0,1,2.608,5.489,1.24,1.24,0,0,1-1.375,1.294c-1.164.029-2.33.007-3.5.007Zm-1.37-2.36v.009c.669,0,1.34.03,2.006-.009.629-.037.809-.313.668-.907a2.251,2.251,0,0,0-.421-.845,2.929,2.929,0,0,0-4.826.755c-.282.63-.141.926.567.985C799.449-218.318,800.121-218.361,800.79-218.361Z" transform="translate(-321.516 -55.456)" fill="#fff"/>
        <path id="Path_632" data-name="Path 632" d="M1000.766-211.47a4.694,4.694,0,0,1-2.183,1.513,5.1,5.1,0,0,1-4.719-.779c-1.9-1.413-2.041-5.142.488-6.492a13.007,13.007,0,0,1,5.2-1.247c.4-.033.957.2,1.12-.317a1.43,1.43,0,0,0-.457-1.345,2.288,2.288,0,0,0-1.6-.728,5.145,5.145,0,0,0-2.282.366,3.488,3.488,0,0,1-1.01.3,1.318,1.318,0,0,1-1.51-.88,1.437,1.437,0,0,1,.707-1.717,8.709,8.709,0,0,1,3.449-.949,7.468,7.468,0,0,1,2.625.25,4.7,4.7,0,0,1,3.529,4.724c.042,2.438.022,4.878.012,7.317,0,.958-.294,1.313-1.068,1.419-1.286.176-1.8-.084-2.07-1.05C1000.969-211.208,1001.011-211.362,1000.766-211.47Zm-1.116-4.667a8.93,8.93,0,0,0-2.687.575,1.613,1.613,0,0,0-1.061,1.84,1.735,1.735,0,0,0,1.682,1.335,3.134,3.134,0,0,0,3.129-2.715C1000.883-215.986,1000.734-216.161,999.65-216.137Z" transform="translate(-475.91 -55.44)" fill="#fff"/>
        <path id="Path_633" data-name="Path 633" d="M864.4-221.721c.515-.043.666-.409.923-.628a5.623,5.623,0,0,1,5.944-1.012,3.556,3.556,0,0,1,2.325,3.389c.106,2.856.058,5.719.04,8.578a1.359,1.359,0,0,1-1.365,1.344,1.619,1.619,0,0,1-1.84-1.079,4.175,4.175,0,0,1-.116-1.261c0-1.942-.03-3.884-.011-5.826.025-2.515-1.927-2.851-3.553-2.06a3.971,3.971,0,0,0-2.225,3.7c-.06,1.587,0,3.177-.017,4.766a1.558,1.558,0,0,1-1.756,1.764,1.525,1.525,0,0,1-1.625-1.575c-.036-.7-.014-1.412-.014-2.118,0-2.436,0-4.873,0-7.309a5.121,5.121,0,0,1,.094-1.156,1.5,1.5,0,0,1,1.619-1.223,1.423,1.423,0,0,1,1.479,1.233C864.345-222.054,864.365-221.916,864.4-221.721Z" transform="translate(-373.599 -55.424)" fill="#fff"/>
        <path id="Path_634" data-name="Path 634" d="M687.216-221.108c.314-.1.467-.409.691-.62a5.522,5.522,0,0,1,5.24-1.25,3.819,3.819,0,0,1,3.045,3.842c.06.88.026,1.766.029,2.649,0,1.732.013,3.463,0,5.195-.006,1.145-.519,1.71-1.537,1.737a1.606,1.606,0,0,1-1.8-1.747c-.025-1.625,0-3.251-.006-4.877,0-.495-.019-.99-.01-1.484.04-2.11-1.391-2.911-3.485-2.028a3.865,3.865,0,0,0-2.267,3.77c-.066,1.517-.009,3.039-.021,4.558-.01,1.191-.538,1.781-1.589,1.815a1.6,1.6,0,0,1-1.766-1.777q-.032-4.877,0-9.754a1.613,1.613,0,0,1,1.452-1.777,1.61,1.61,0,0,1,1.773,1.309C687.021-221.389,687.009-221.195,687.216-221.108Z" transform="translate(-235.423 -55.919)" fill="#fff"/>
        <path id="Path_635" data-name="Path 635" d="M750.683-211.828a7.95,7.95,0,0,1-2.988-.6,4.252,4.252,0,0,1-1.147-.75,1.388,1.388,0,0,1-.407-1.719,1.517,1.517,0,0,1,1.646-.888,2.459,2.459,0,0,1,1.08.407,4.343,4.343,0,0,0,1.616.463,1.509,1.509,0,0,0,1.184-.361.96.96,0,0,0,.1-1.547,4.3,4.3,0,0,0-1.179-.7c-.89-.43-1.812-.787-2.666-1.293a3.664,3.664,0,0,1-2.027-3.559,3.941,3.941,0,0,1,2.251-3.467,6.192,6.192,0,0,1,5.614.021,2.072,2.072,0,0,1,.447.28,1.476,1.476,0,0,1,.5,1.877,1.443,1.443,0,0,1-1.842.825,10.891,10.891,0,0,1-1.2-.418,2.323,2.323,0,0,0-1.455-.038,1.148,1.148,0,0,0-.968.866,1.008,1.008,0,0,0,.618,1.119c.364.212.761.369,1.142.551.8.381,1.617.717,2.38,1.155a3.75,3.75,0,0,1,2.032,3.979,3.985,3.985,0,0,1-2.769,3.43A4.841,4.841,0,0,1,750.683-211.828Z" transform="translate(-283.847 -53.308)" fill="#fff"/>
        <path id="Path_636" data-name="Path 636" d="M407.854-253.315a9.089,9.089,0,0,1-.208,1.682,1.354,1.354,0,0,1-.742.981,1.343,1.343,0,0,0-.688,1.429,1.862,1.862,0,0,1-.923,1.882,1.443,1.443,0,0,0-.727.863,2.706,2.706,0,0,1-1.658,1.8c-.846.415-.9.451-.706,1.37a1.256,1.256,0,0,1-1.84,1.412,1.2,1.2,0,0,0-1.367.038,29.9,29.9,0,0,1-5.662,2.051,3.083,3.083,0,0,1-1.043.134.967.967,0,0,1-.947-.833.994.994,0,0,1,.647-1.191c.5-.162,1.037-.212,1.546-.354a20.972,20.972,0,0,0,8.311-4.281,10.325,10.325,0,0,0,3.492-5.321,8.564,8.564,0,0,0-.789-6.223c-1.722-3.316-4.528-5.2-7.769-6.656a23.285,23.285,0,0,0-5.663-1.681c-.278-.047-.549-.129-.826-.184-.313-.063-.549-.216-.491-.562.053-.313.336-.33.588-.3.385.04.77.1,1.152.164a25.13,25.13,0,0,1,11.226,4.679,13.1,13.1,0,0,1,4.6,6.3A10.945,10.945,0,0,1,407.854-253.315Z" transform="translate(-6.445 -21.552)" fill="#fff"/>
        <path id="Path_637" data-name="Path 637" d="M402.68-250.182a8.642,8.642,0,0,1-2.06,5.782c-2.635,3.181-6.164,4.854-10.038,5.939a2.486,2.486,0,0,1-.735.069c-.6-.018-.88-.253-.96-.773a.969.969,0,0,1,.647-1.182,7.119,7.119,0,0,1,.719-.167,15.541,15.541,0,0,0,8.405-5.01,7.084,7.084,0,0,0,1.558-6.923,10.538,10.538,0,0,0-4.757-5.83,22.215,22.215,0,0,0-7.6-2.788c-.4-.076-.994-.029-.93-.6.07-.633.678-.383,1.042-.325,4.593.735,8.832,2.269,12.084,5.774A8.619,8.619,0,0,1,402.68-250.182Z" transform="translate(-4.212 -25.59)" fill="#fff"/>
        <path id="Path_638" data-name="Path 638" d="M395.633-246.372a7.546,7.546,0,0,1-1.721,4.58,13.829,13.829,0,0,1-7.155,4.48,2.437,2.437,0,0,1-1.05.068.815.815,0,0,1-.742-.655.884.884,0,0,1,.393-.917,2.3,2.3,0,0,1,.89-.321,10.9,10.9,0,0,0,5.83-3.824,6.3,6.3,0,0,0-.5-8.411,14.6,14.6,0,0,0-8.89-4.267,1.914,1.914,0,0,1-.916-.206.487.487,0,0,1-.246-.438.452.452,0,0,1,.394-.434,2.031,2.031,0,0,1,.63,0,19.936,19.936,0,0,1,8.774,3.2,9.611,9.611,0,0,1,4.063,5.373A5.984,5.984,0,0,1,395.633-246.372Z" transform="translate(0 -29.755)" fill="#fff"/>
        <path id="Path_639" data-name="Path 639" d="M659.573-216.1c0-1.658-.034-3.317.012-4.974a1.649,1.649,0,0,1,2.4-1.493,1.613,1.613,0,0,1,.958,1.523c.02.634.013,1.27.013,1.9q0,3.6,0,7.2a7.878,7.878,0,0,1-.023.951,1.666,1.666,0,0,1-1.806,1.546,1.612,1.612,0,0,1-1.546-1.682C659.553-212.782,659.572-214.44,659.573-216.1Z" transform="translate(-216.595 -56.244)" fill="#fff"/>
        <path id="Path_640" data-name="Path 640" d="M393.164-242.109a4.972,4.972,0,0,1-.71,2.744,9.886,9.886,0,0,1-5.505,4.555,1.987,1.987,0,0,1-.511.131.93.93,0,0,1-.984-.65.877.877,0,0,1,.365-1.111,3.665,3.665,0,0,1,.678-.292,9.823,9.823,0,0,0,2.578-1.445,4.933,4.933,0,0,0,1.424-6.449,7.225,7.225,0,0,0-2.57-2.715,14.8,14.8,0,0,0-4.685-1.894,5.492,5.492,0,0,1-.91-.271.44.44,0,0,1-.23-.536.4.4,0,0,1,.377-.316,2.956,2.956,0,0,1,.737.031,14.421,14.421,0,0,1,7.92,3.735A5.812,5.812,0,0,1,393.164-242.109Z" transform="translate(-0.442 -34.721)" fill="#fff"/>
        <path id="Path_641" data-name="Path 641" d="M391.728-272.453a30.964,30.964,0,0,1,5.882,1.309,25.412,25.412,0,0,1,8.574,4.506,15.638,15.638,0,0,1,5.5,8.7,4.767,4.767,0,0,1,.145,1.364,1.237,1.237,0,0,1-1.127,1.308c-.625.063-1.027-.284-1.16-1.1-.119-.73-.162-1.473-.247-2.209a10.423,10.423,0,0,0-2.02-4.683c-2.774-4.038-6.909-6-11.4-7.392a18.1,18.1,0,0,0-4.237-.873.908.908,0,0,1-.21-.027c-.3-.092-.673-.161-.595-.592.067-.369.4-.329.684-.319C391.587-272.463,391.658-272.457,391.728-272.453Z" transform="translate(-7.247 -17.502)" fill="#fff"/>
        <path id="Path_642" data-name="Path 642" d="M392.294-277.789a44.27,44.27,0,0,1,8.428,1.989,24.469,24.469,0,0,1,10.388,6.875,23.682,23.682,0,0,1,2.6,3.6,1.782,1.782,0,0,1,.224.477.765.765,0,0,1-.236.864.838.838,0,0,1-.99.02,1.44,1.44,0,0,1-.57-.743,18.142,18.142,0,0,0-8.393-8.593,30.231,30.231,0,0,0-10.489-3.436c-.349-.046-.691-.145-1.04-.179-.595-.058-.722-.35-.483-.862Z" transform="translate(-7.872 -13.36)" fill="#fff"/>
        <path id="Path_643" data-name="Path 643" d="M390.444-236.022c.013,1.238-1.445,2.861-3.22,3.61a1.7,1.7,0,0,1-.614.142.959.959,0,0,1-.909-1.39,2.081,2.081,0,0,1,.782-.84,10.461,10.461,0,0,0,1.024-.746,2.636,2.636,0,0,0,.666-3.351,6.722,6.722,0,0,0-3.812-3.321c-.518-.213-1.076-.329-1.615-.5-.3-.093-.667-.159-.608-.59.063-.457.438-.5.806-.49a2.637,2.637,0,0,1,.523.072A11,11,0,0,1,388.46-241,5.911,5.911,0,0,1,390.444-236.022Z" transform="translate(-0.477 -40.075)" fill="#fff"/>
        <path id="Path_644" data-name="Path 644" d="M401.007-142.878c-1.033-.017-1.442-.307-1.535-.888-.1-.612.155-1.021.883-1.229,1.22-.349,2.479-.554,3.679-.982.465-.166.924-.348,1.4-.487a1.187,1.187,0,0,1,1.594.62c.22.606-.062,1.152-.809,1.494A24.215,24.215,0,0,1,401.007-142.878Z" transform="translate(-13.969 -115.598)" fill="#fff"/>
        <path id="Path_645" data-name="Path 645" d="M661.551-244.48a2.131,2.131,0,0,1-2.111,2.176,2.19,2.19,0,0,1-2.222-2.085,2.253,2.253,0,0,1,2.183-2.257A2.216,2.216,0,0,1,661.551-244.48Z" transform="translate(-214.77 -37.62)" fill="#fff"/>
        <path id="Path_646" data-name="Path 646" d="M395.675-281.249c-.066-.555.248-.646.71-.617a24.287,24.287,0,0,1,3.638.6,37.135,37.135,0,0,1,9.239,3.237,4.421,4.421,0,0,0,.59.209c.118.128.284.238.347.389a.475.475,0,0,1-.56.7,3.094,3.094,0,0,1-.762-.349,34.925,34.925,0,0,0-11.859-3.893C396.566-281.042,396.122-281.158,395.675-281.249Z" transform="translate(-11.02 -10.18)" fill="#fff"/>
        <path id="Path_647" data-name="Path 647" d="M410.046-123.333a10.753,10.753,0,0,1-1.546-2.321,1.575,1.575,0,0,1,1.007-2.195,1.667,1.667,0,0,1,2.229,1.161,1.858,1.858,0,0,1-.221,1.323A13.4,13.4,0,0,1,410.046-123.333Z" transform="translate(-20.908 -130.09)" fill="#fff"/>
        <path id="Path_648" data-name="Path 648" d="M409.035-283.927c.109.88-.085,1.065-.872.776-.627-.23-1.226-.539-1.853-.767a44.393,44.393,0,0,0-9.7-2.383c-.035,0-.07,0-.105-.006-.289-.028-.623-.063-.589-.443s.352-.355.65-.3c1.247.21,2.5.379,3.742.628,1.412.283,2.81.636,4.213.958a3.636,3.636,0,0,1,1.665.508c.66.31,1.359.537,2.04.8.206.227.48.169.74.174Z" transform="translate(-11.209 -6.12)" fill="#fff"/>
        <path id="Path_649" data-name="Path 649" d="M390.058-231.527a2.821,2.821,0,0,1-.708,1.7.879.879,0,0,1-1.229.174.723.723,0,0,1-.027-1.118,1.411,1.411,0,0,0-.03-1.921,4.611,4.611,0,0,0-1.729-1.512,9.359,9.359,0,0,1-.831-.457.485.485,0,0,1-.214-.64.574.574,0,0,1,.587-.365c.035,0,.07,0,.105.007a5.537,5.537,0,0,1,4.041,3.9C390.033-231.695,390.044-231.625,390.058-231.527Z" transform="translate(-2.901 -46.169)" fill="#fff"/>
        <path id="Path_650" data-name="Path 650" d="M465.8-257.083a5.132,5.132,0,0,1,1.551.639,28.782,28.782,0,0,1,4.082,3.8,2.23,2.23,0,0,1,.3.427.753.753,0,0,1-.26,1.021.707.707,0,0,1-.956-.114,2.056,2.056,0,0,1-.275-.318A18.659,18.659,0,0,0,465.719-256c-.115-.081-.228-.165-.335-.257-.184-.158-.413-.3-.314-.6C465.131-257.046,465.382-257.129,465.8-257.083Z" transform="translate(-65.068 -29.48)" fill="#fff"/>
        <path id="Path_651" data-name="Path 651" d="M409.657-288.721a5.344,5.344,0,0,1-1.842-.382c-1.48-.279-2.958-.567-4.437-.848-.137-.026-.282-.017-.418-.049-.222-.051-.414-.181-.38-.426s.254-.3.486-.263a5.543,5.543,0,0,1,.929.175,2.275,2.275,0,0,0,1.035.117,4.621,4.621,0,0,0,2.776.678c.529.033,1.023.189,1.543.231C409.81-289.451,409.9-289.118,409.657-288.721Z" transform="translate(-16.403 -3.3)" fill="#fff"/>
        <path id="Path_652" data-name="Path 652" d="M407.887-294.156c-.3.02-.622.116-.865-.17.061-.445.3-.723.754-.571C408.173-294.762,408.1-294.442,407.887-294.156Z" transform="translate(-19.866 0)" fill="#fff"/>
        <path id="Path_653" data-name="Path 653" d="M486.39-248.941a3.557,3.557,0,0,1-.968-.8c-.1-.093-.185-.23-.042-.357a.285.285,0,0,1,.385.013,2.568,2.568,0,0,1,.793.966Z" transform="translate(-80.848 -34.876)" fill="#fff"/>
        <path id="Path_654" data-name="Path 654" d="M492.274-243.526a2.4,2.4,0,0,1,.3.069c.21.077.4.222.268.451s-.353.133-.511-.019a2.249,2.249,0,0,1-.239-.329Z" transform="translate(-86.136 -40.051)" fill="#fff"/>
        <path id="Path_655" data-name="Path 655" d="M491.358-244.025l-.208-.213.155-.15.235.191Z" transform="translate(-85.402 -39.379)" fill="#fff"/>
        <path id="Path_656" data-name="Path 656" d="M490.425-245.047l-.206-.2.168-.179.193.229Z" transform="translate(-84.677 -38.57)" fill="#fff"/>
      </g>
    </g>
  </g>
</svg>
